<svg xmlns="http://www.w3.org/2000/svg" viewBox="0 0 64 64" shape-rendering="crispEdges">
<rect width="64" height="64" rx="14" fill="#f0954a"/>
<rect x="3" y="3" width="58" height="58" rx="12" fill="#fff6df"/>
<rect x="12.50" y="9.25" width="3.25" height="3.25" fill="#2a1c14"/><rect x="15.75" y="9.25" width="3.25" height="3.25" fill="#2a1c14"/><rect x="45.00" y="9.25" width="3.25" height="3.25" fill="#2a1c14"/><rect x="48.25" y="9.25" width="3.25" height="3.25" fill="#2a1c14"/><rect x="9.25" y="12.50" width="3.25" height="3.25" fill="#2a1c14"/><rect x="12.50" y="12.50" width="3.25" height="3.25" fill="#6a3a24"/><rect x="15.75" y="12.50" width="3.25" height="3.25" fill="#6a3a24"/><rect x="19.00" y="12.50" width="3.25" height="3.25" fill="#2a1c14"/><rect x="41.75" y="12.50" width="3.25" height="3.25" fill="#2a1c14"/><rect x="45.00" y="12.50" width="3.25" height="3.25" fill="#6a3a24"/><rect x="48.25" y="12.50" width="3.25" height="3.25" fill="#6a3a24"/><rect x="51.50" y="12.50" width="3.25" height="3.25" fill="#2a1c14"/><rect x="9.25" y="15.75" width="3.25" height="3.25" fill="#2a1c14"/><rect x="12.50" y="15.75" width="3.25" height="3.25" fill="#6a3a24"/><rect x="15.75" y="15.75" width="3.25" height="3.25" fill="#6a3a24"/><rect x="19.00" y="15.75" width="3.25" height="3.25" fill="#6a3a24"/><rect x="22.25" y="15.75" width="3.25" height="3.25" fill="#2a1c14"/><rect x="25.50" y="15.75" width="3.25" height="3.25" fill="#2a1c14"/><rect x="28.75" y="15.75" width="3.25" height="3.25" fill="#f6f2ea"/><rect x="32.00" y="15.75" width="3.25" height="3.25" fill="#f6f2ea"/><rect x="35.25" y="15.75" width="3.25" height="3.25" fill="#2a1c14"/><rect x="38.50" y="15.75" width="3.25" height="3.25" fill="#2a1c14"/><rect x="41.75" y="15.75" width="3.25" height="3.25" fill="#6a3a24"/><rect x="45.00" y="15.75" width="3.25" height="3.25" fill="#6a3a24"/><rect x="48.25" y="15.75" width="3.25" height="3.25" fill="#6a3a24"/><rect x="51.50" y="15.75" width="3.25" height="3.25" fill="#2a1c14"/><rect x="9.25" y="19.00" width="3.25" height="3.25" fill="#2a1c14"/><rect x="12.50" y="19.00" width="3.25" height="3.25" fill="#6a3a24"/><rect x="15.75" y="19.00" width="3.25" height="3.25" fill="#6a3a24"/><rect x="19.00" y="19.00" width="3.25" height="3.25" fill="#6a3a24"/><rect x="22.25" y="19.00" width="3.25" height="3.25" fill="#6a3a24"/><rect x="25.50" y="19.00" width="3.25" height="3.25" fill="#6a3a24"/><rect x="28.75" y="19.00" width="3.25" height="3.25" fill="#f6f2ea"/><rect x="32.00" y="19.00" width="3.25" height="3.25" fill="#f6f2ea"/><rect x="35.25" y="19.00" width="3.25" height="3.25" fill="#6a3a24"/><rect x="38.50" y="19.00" width="3.25" height="3.25" fill="#6a3a24"/><rect x="41.75" y="19.00" width="3.25" height="3.25" fill="#6a3a24"/><rect x="45.00" y="19.00" width="3.25" height="3.25" fill="#6a3a24"/><rect x="48.25" y="19.00" width="3.25" height="3.25" fill="#6a3a24"/><rect x="51.50" y="19.00" width="3.25" height="3.25" fill="#2a1c14"/><rect x="9.25" y="22.25" width="3.25" height="3.25" fill="#2a1c14"/><rect x="12.50" y="22.25" width="3.25" height="3.25" fill="#6a3a24"/><rect x="15.75" y="22.25" width="3.25" height="3.25" fill="#6a3a24"/><rect x="19.00" y="22.25" width="3.25" height="3.25" fill="#6a3a24"/><rect x="22.25" y="22.25" width="3.25" height="3.25" fill="#6a3a24"/><rect x="25.50" y="22.25" width="3.25" height="3.25" fill="#c8a060"/><rect x="28.75" y="22.25" width="3.25" height="3.25" fill="#f6f2ea"/><rect x="32.00" y="22.25" width="3.25" height="3.25" fill="#f6f2ea"/><rect x="35.25" y="22.25" width="3.25" height="3.25" fill="#c8a060"/><rect x="38.50" y="22.25" width="3.25" height="3.25" fill="#6a3a24"/><rect x="41.75" y="22.25" width="3.25" height="3.25" fill="#6a3a24"/><rect x="45.00" y="22.25" width="3.25" height="3.25" fill="#6a3a24"/><rect x="48.25" y="22.25" width="3.25" height="3.25" fill="#6a3a24"/><rect x="51.50" y="22.25" width="3.25" height="3.25" fill="#2a1c14"/><rect x="12.50" y="25.50" width="3.25" height="3.25" fill="#2a1c14"/><rect x="15.75" y="25.50" width="3.25" height="3.25" fill="#6a3a24"/><rect x="19.00" y="25.50" width="3.25" height="3.25" fill="#6a3a24"/><rect x="22.25" y="25.50" width="3.25" height="3.25" fill="#6a3a24"/><rect x="25.50" y="25.50" width="3.25" height="3.25" fill="#2a1c14"/><rect x="28.75" y="25.50" width="3.25" height="3.25" fill="#f6f2ea"/><rect x="32.00" y="25.50" width="3.25" height="3.25" fill="#f6f2ea"/><rect x="35.25" y="25.50" width="3.25" height="3.25" fill="#2a1c14"/><rect x="38.50" y="25.50" width="3.25" height="3.25" fill="#6a3a24"/><rect x="41.75" y="25.50" width="3.25" height="3.25" fill="#6a3a24"/><rect x="45.00" y="25.50" width="3.25" height="3.25" fill="#6a3a24"/><rect x="48.25" y="25.50" width="3.25" height="3.25" fill="#2a1c14"/><rect x="12.50" y="28.75" width="3.25" height="3.25" fill="#2a1c14"/><rect x="15.75" y="28.75" width="3.25" height="3.25" fill="#6a3a24"/><rect x="19.00" y="28.75" width="3.25" height="3.25" fill="#6a3a24"/><rect x="22.25" y="28.75" width="3.25" height="3.25" fill="#6a3a24"/><rect x="25.50" y="28.75" width="3.25" height="3.25" fill="#6a3a24"/><rect x="28.75" y="28.75" width="3.25" height="3.25" fill="#f6f2ea"/><rect x="32.00" y="28.75" width="3.25" height="3.25" fill="#f6f2ea"/><rect x="35.25" y="28.75" width="3.25" height="3.25" fill="#6a3a24"/><rect x="38.50" y="28.75" width="3.25" height="3.25" fill="#6a3a24"/><rect x="41.75" y="28.75" width="3.25" height="3.25" fill="#6a3a24"/><rect x="45.00" y="28.75" width="3.25" height="3.25" fill="#6a3a24"/><rect x="48.25" y="28.75" width="3.25" height="3.25" fill="#2a1c14"/><rect x="12.50" y="32.00" width="3.25" height="3.25" fill="#2a1c14"/><rect x="15.75" y="32.00" width="3.25" height="3.25" fill="#6a3a24"/><rect x="19.00" y="32.00" width="3.25" height="3.25" fill="#6a3a24"/><rect x="22.25" y="32.00" width="3.25" height="3.25" fill="#f6f2ea"/><rect x="25.50" y="32.00" width="3.25" height="3.25" fill="#f6f2ea"/><rect x="28.75" y="32.00" width="3.25" height="3.25" fill="#d98a8a"/><rect x="32.00" y="32.00" width="3.25" height="3.25" fill="#d98a8a"/><rect x="35.25" y="32.00" width="3.25" height="3.25" fill="#f6f2ea"/><rect x="38.50" y="32.00" width="3.25" height="3.25" fill="#f6f2ea"/><rect x="41.75" y="32.00" width="3.25" height="3.25" fill="#6a3a24"/><rect x="45.00" y="32.00" width="3.25" height="3.25" fill="#6a3a24"/><rect x="48.25" y="32.00" width="3.25" height="3.25" fill="#2a1c14"/><rect x="15.75" y="35.25" width="3.25" height="3.25" fill="#2a1c14"/><rect x="19.00" y="35.25" width="3.25" height="3.25" fill="#6a3a24"/><rect x="22.25" y="35.25" width="3.25" height="3.25" fill="#f6f2ea"/><rect x="25.50" y="35.25" width="3.25" height="3.25" fill="#f6f2ea"/><rect x="28.75" y="35.25" width="3.25" height="3.25" fill="#d98a8a"/><rect x="32.00" y="35.25" width="3.25" height="3.25" fill="#d98a8a"/><rect x="35.25" y="35.25" width="3.25" height="3.25" fill="#f6f2ea"/><rect x="38.50" y="35.25" width="3.25" height="3.25" fill="#f6f2ea"/><rect x="41.75" y="35.25" width="3.25" height="3.25" fill="#6a3a24"/><rect x="45.00" y="35.25" width="3.25" height="3.25" fill="#2a1c14"/><rect x="15.75" y="38.50" width="3.25" height="3.25" fill="#2a1c14"/><rect x="19.00" y="38.50" width="3.25" height="3.25" fill="#6a3a24"/><rect x="22.25" y="38.50" width="3.25" height="3.25" fill="#f6f2ea"/><rect x="25.50" y="38.50" width="3.25" height="3.25" fill="#f6f2ea"/><rect x="28.75" y="38.50" width="3.25" height="3.25" fill="#f6f2ea"/><rect x="32.00" y="38.50" width="3.25" height="3.25" fill="#f6f2ea"/><rect x="35.25" y="38.50" width="3.25" height="3.25" fill="#f6f2ea"/><rect x="38.50" y="38.50" width="3.25" height="3.25" fill="#f6f2ea"/><rect x="41.75" y="38.50" width="3.25" height="3.25" fill="#6a3a24"/><rect x="45.00" y="38.50" width="3.25" height="3.25" fill="#2a1c14"/><rect x="19.00" y="41.75" width="3.25" height="3.25" fill="#2a1c14"/><rect x="22.25" y="41.75" width="3.25" height="3.25" fill="#f6f2ea"/><rect x="25.50" y="41.75" width="3.25" height="3.25" fill="#f6f2ea"/><rect x="28.75" y="41.75" width="3.25" height="3.25" fill="#f6f2ea"/><rect x="32.00" y="41.75" width="3.25" height="3.25" fill="#f6f2ea"/><rect x="35.25" y="41.75" width="3.25" height="3.25" fill="#f6f2ea"/><rect x="38.50" y="41.75" width="3.25" height="3.25" fill="#f6f2ea"/><rect x="41.75" y="41.75" width="3.25" height="3.25" fill="#2a1c14"/><rect x="19.00" y="45.00" width="3.25" height="3.25" fill="#2a1c14"/><rect x="22.25" y="45.00" width="3.25" height="3.25" fill="#f6f2ea"/><rect x="25.50" y="45.00" width="3.25" height="3.25" fill="#f6f2ea"/><rect x="28.75" y="45.00" width="3.25" height="3.25" fill="#f6f2ea"/><rect x="32.00" y="45.00" width="3.25" height="3.25" fill="#f6f2ea"/><rect x="35.25" y="45.00" width="3.25" height="3.25" fill="#f6f2ea"/><rect x="38.50" y="45.00" width="3.25" height="3.25" fill="#f6f2ea"/><rect x="41.75" y="45.00" width="3.25" height="3.25" fill="#2a1c14"/><rect x="15.75" y="48.25" width="3.25" height="3.25" fill="#2a1c14"/><rect x="19.00" y="48.25" width="3.25" height="3.25" fill="#f6f2ea"/><rect x="22.25" y="48.25" width="3.25" height="3.25" fill="#2a1c14"/><rect x="38.50" y="48.25" width="3.25" height="3.25" fill="#2a1c14"/><rect x="41.75" y="48.25" width="3.25" height="3.25" fill="#f6f2ea"/><rect x="45.00" y="48.25" width="3.25" height="3.25" fill="#2a1c14"/><rect x="15.75" y="51.50" width="3.25" height="3.25" fill="#2a1c14"/><rect x="19.00" y="51.50" width="3.25" height="3.25" fill="#2a1c14"/><rect x="41.75" y="51.50" width="3.25" height="3.25" fill="#2a1c14"/><rect x="45.00" y="51.50" width="3.25" height="3.25" fill="#2a1c14"/>
</svg>