<svg xmlns="http://www.w3.org/2000/svg" viewBox="0 0 1200 630" shape-rendering="crispEdges">
<defs><linearGradient id="sky" x1="0" y1="0" x2="0" y2="1">
<stop offset="0" stop-color="#8ad0e8"/><stop offset="0.54" stop-color="#bfe6f2"/>
<stop offset="0.54" stop-color="#7cc46a"/><stop offset="1" stop-color="#57a84a"/></linearGradient></defs>
<rect width="1200" height="630" fill="url(#sky)"/>
<rect x="157.50" y="165.00" width="18.75" height="18.75" fill="#2a1c14"/><rect x="176.25" y="165.00" width="18.75" height="18.75" fill="#2a1c14"/><rect x="345.00" y="165.00" width="18.75" height="18.75" fill="#2a1c14"/><rect x="363.75" y="165.00" width="18.75" height="18.75" fill="#2a1c14"/><rect x="138.75" y="183.75" width="18.75" height="18.75" fill="#2a1c14"/><rect x="157.50" y="183.75" width="18.75" height="18.75" fill="#6a3a24"/><rect x="176.25" y="183.75" width="18.75" height="18.75" fill="#6a3a24"/><rect x="195.00" y="183.75" width="18.75" height="18.75" fill="#2a1c14"/><rect x="326.25" y="183.75" width="18.75" height="18.75" fill="#2a1c14"/><rect x="345.00" y="183.75" width="18.75" height="18.75" fill="#6a3a24"/><rect x="363.75" y="183.75" width="18.75" height="18.75" fill="#6a3a24"/><rect x="382.50" y="183.75" width="18.75" height="18.75" fill="#2a1c14"/><rect x="138.75" y="202.50" width="18.75" height="18.75" fill="#2a1c14"/><rect x="157.50" y="202.50" width="18.75" height="18.75" fill="#6a3a24"/><rect x="176.25" y="202.50" width="18.75" height="18.75" fill="#6a3a24"/><rect x="195.00" y="202.50" width="18.75" height="18.75" fill="#6a3a24"/><rect x="213.75" y="202.50" width="18.75" height="18.75" fill="#2a1c14"/><rect x="307.50" y="202.50" width="18.75" height="18.75" fill="#2a1c14"/><rect x="326.25" y="202.50" width="18.75" height="18.75" fill="#6a3a24"/><rect x="345.00" y="202.50" width="18.75" height="18.75" fill="#6a3a24"/><rect x="363.75" y="202.50" width="18.75" height="18.75" fill="#6a3a24"/><rect x="382.50" y="202.50" width="18.75" height="18.75" fill="#2a1c14"/><rect x="138.75" y="221.25" width="18.75" height="18.75" fill="#2a1c14"/><rect x="157.50" y="221.25" width="18.75" height="18.75" fill="#6a3a24"/><rect x="176.25" y="221.25" width="18.75" height="18.75" fill="#6a3a24"/><rect x="195.00" y="221.25" width="18.75" height="18.75" fill="#6a3a24"/><rect x="213.75" y="221.25" width="18.75" height="18.75" fill="#2a1c14"/><rect x="232.50" y="221.25" width="18.75" height="18.75" fill="#2a1c14"/><rect x="251.25" y="221.25" width="18.75" height="18.75" fill="#f6f2ea"/><rect x="270.00" y="221.25" width="18.75" height="18.75" fill="#f6f2ea"/><rect x="288.75" y="221.25" width="18.75" height="18.75" fill="#2a1c14"/><rect x="307.50" y="221.25" width="18.75" height="18.75" fill="#2a1c14"/><rect x="326.25" y="221.25" width="18.75" height="18.75" fill="#6a3a24"/><rect x="345.00" y="221.25" width="18.75" height="18.75" fill="#6a3a24"/><rect x="363.75" y="221.25" width="18.75" height="18.75" fill="#6a3a24"/><rect x="382.50" y="221.25" width="18.75" height="18.75" fill="#2a1c14"/><rect x="138.75" y="240.00" width="18.75" height="18.75" fill="#2a1c14"/><rect x="157.50" y="240.00" width="18.75" height="18.75" fill="#6a3a24"/><rect x="176.25" y="240.00" width="18.75" height="18.75" fill="#6a3a24"/><rect x="195.00" y="240.00" width="18.75" height="18.75" fill="#6a3a24"/><rect x="213.75" y="240.00" width="18.75" height="18.75" fill="#6a3a24"/><rect x="232.50" y="240.00" width="18.75" height="18.75" fill="#6a3a24"/><rect x="251.25" y="240.00" width="18.75" height="18.75" fill="#f6f2ea"/><rect x="270.00" y="240.00" width="18.75" height="18.75" fill="#f6f2ea"/><rect x="288.75" y="240.00" width="18.75" height="18.75" fill="#6a3a24"/><rect x="307.50" y="240.00" width="18.75" height="18.75" fill="#6a3a24"/><rect x="326.25" y="240.00" width="18.75" height="18.75" fill="#6a3a24"/><rect x="345.00" y="240.00" width="18.75" height="18.75" fill="#6a3a24"/><rect x="363.75" y="240.00" width="18.75" height="18.75" fill="#6a3a24"/><rect x="382.50" y="240.00" width="18.75" height="18.75" fill="#2a1c14"/><rect x="138.75" y="258.75" width="18.75" height="18.75" fill="#2a1c14"/><rect x="157.50" y="258.75" width="18.75" height="18.75" fill="#6a3a24"/><rect x="176.25" y="258.75" width="18.75" height="18.75" fill="#6a3a24"/><rect x="195.00" y="258.75" width="18.75" height="18.75" fill="#6a3a24"/><rect x="213.75" y="258.75" width="18.75" height="18.75" fill="#6a3a24"/><rect x="232.50" y="258.75" width="18.75" height="18.75" fill="#c8a060"/><rect x="251.25" y="258.75" width="18.75" height="18.75" fill="#f6f2ea"/><rect x="270.00" y="258.75" width="18.75" height="18.75" fill="#f6f2ea"/><rect x="288.75" y="258.75" width="18.75" height="18.75" fill="#c8a060"/><rect x="307.50" y="258.75" width="18.75" height="18.75" fill="#6a3a24"/><rect x="326.25" y="258.75" width="18.75" height="18.75" fill="#6a3a24"/><rect x="345.00" y="258.75" width="18.75" height="18.75" fill="#6a3a24"/><rect x="363.75" y="258.75" width="18.75" height="18.75" fill="#6a3a24"/><rect x="382.50" y="258.75" width="18.75" height="18.75" fill="#2a1c14"/><rect x="138.75" y="277.50" width="18.75" height="18.75" fill="#2a1c14"/><rect x="157.50" y="277.50" width="18.75" height="18.75" fill="#6a3a24"/><rect x="176.25" y="277.50" width="18.75" height="18.75" fill="#6a3a24"/><rect x="195.00" y="277.50" width="18.75" height="18.75" fill="#6a3a24"/><rect x="213.75" y="277.50" width="18.75" height="18.75" fill="#6a3a24"/><rect x="232.50" y="277.50" width="18.75" height="18.75" fill="#2a1c14"/><rect x="251.25" y="277.50" width="18.75" height="18.75" fill="#f6f2ea"/><rect x="270.00" y="277.50" width="18.75" height="18.75" fill="#f6f2ea"/><rect x="288.75" y="277.50" width="18.75" height="18.75" fill="#2a1c14"/><rect x="307.50" y="277.50" width="18.75" height="18.75" fill="#6a3a24"/><rect x="326.25" y="277.50" width="18.75" height="18.75" fill="#6a3a24"/><rect x="345.00" y="277.50" width="18.75" height="18.75" fill="#6a3a24"/><rect x="363.75" y="277.50" width="18.75" height="18.75" fill="#6a3a24"/><rect x="382.50" y="277.50" width="18.75" height="18.75" fill="#2a1c14"/><rect x="157.50" y="296.25" width="18.75" height="18.75" fill="#2a1c14"/><rect x="176.25" y="296.25" width="18.75" height="18.75" fill="#6a3a24"/><rect x="195.00" y="296.25" width="18.75" height="18.75" fill="#6a3a24"/><rect x="213.75" y="296.25" width="18.75" height="18.75" fill="#6a3a24"/><rect x="232.50" y="296.25" width="18.75" height="18.75" fill="#6a3a24"/><rect x="251.25" y="296.25" width="18.75" height="18.75" fill="#f6f2ea"/><rect x="270.00" y="296.25" width="18.75" height="18.75" fill="#f6f2ea"/><rect x="288.75" y="296.25" width="18.75" height="18.75" fill="#6a3a24"/><rect x="307.50" y="296.25" width="18.75" height="18.75" fill="#6a3a24"/><rect x="326.25" y="296.25" width="18.75" height="18.75" fill="#6a3a24"/><rect x="345.00" y="296.25" width="18.75" height="18.75" fill="#6a3a24"/><rect x="363.75" y="296.25" width="18.75" height="18.75" fill="#2a1c14"/><rect x="157.50" y="315.00" width="18.75" height="18.75" fill="#2a1c14"/><rect x="176.25" y="315.00" width="18.75" height="18.75" fill="#6a3a24"/><rect x="195.00" y="315.00" width="18.75" height="18.75" fill="#6a3a24"/><rect x="213.75" y="315.00" width="18.75" height="18.75" fill="#f6f2ea"/><rect x="232.50" y="315.00" width="18.75" height="18.75" fill="#f6f2ea"/><rect x="251.25" y="315.00" width="18.75" height="18.75" fill="#d98a8a"/><rect x="270.00" y="315.00" width="18.75" height="18.75" fill="#d98a8a"/><rect x="288.75" y="315.00" width="18.75" height="18.75" fill="#f6f2ea"/><rect x="307.50" y="315.00" width="18.75" height="18.75" fill="#f6f2ea"/><rect x="326.25" y="315.00" width="18.75" height="18.75" fill="#6a3a24"/><rect x="345.00" y="315.00" width="18.75" height="18.75" fill="#6a3a24"/><rect x="363.75" y="315.00" width="18.75" height="18.75" fill="#2a1c14"/><rect x="157.50" y="333.75" width="18.75" height="18.75" fill="#2a1c14"/><rect x="176.25" y="333.75" width="18.75" height="18.75" fill="#6a3a24"/><rect x="195.00" y="333.75" width="18.75" height="18.75" fill="#6a3a24"/><rect x="213.75" y="333.75" width="18.75" height="18.75" fill="#f6f2ea"/><rect x="232.50" y="333.75" width="18.75" height="18.75" fill="#f6f2ea"/><rect x="251.25" y="333.75" width="18.75" height="18.75" fill="#d98a8a"/><rect x="270.00" y="333.75" width="18.75" height="18.75" fill="#d98a8a"/><rect x="288.75" y="333.75" width="18.75" height="18.75" fill="#f6f2ea"/><rect x="307.50" y="333.75" width="18.75" height="18.75" fill="#f6f2ea"/><rect x="326.25" y="333.75" width="18.75" height="18.75" fill="#6a3a24"/><rect x="345.00" y="333.75" width="18.75" height="18.75" fill="#6a3a24"/><rect x="363.75" y="333.75" width="18.75" height="18.75" fill="#2a1c14"/><rect x="157.50" y="352.50" width="18.75" height="18.75" fill="#2a1c14"/><rect x="176.25" y="352.50" width="18.75" height="18.75" fill="#6a3a24"/><rect x="195.00" y="352.50" width="18.75" height="18.75" fill="#6a3a24"/><rect x="213.75" y="352.50" width="18.75" height="18.75" fill="#f6f2ea"/><rect x="232.50" y="352.50" width="18.75" height="18.75" fill="#f6f2ea"/><rect x="251.25" y="352.50" width="18.75" height="18.75" fill="#f6f2ea"/><rect x="270.00" y="352.50" width="18.75" height="18.75" fill="#f6f2ea"/><rect x="288.75" y="352.50" width="18.75" height="18.75" fill="#f6f2ea"/><rect x="307.50" y="352.50" width="18.75" height="18.75" fill="#f6f2ea"/><rect x="326.25" y="352.50" width="18.75" height="18.75" fill="#6a3a24"/><rect x="345.00" y="352.50" width="18.75" height="18.75" fill="#6a3a24"/><rect x="363.75" y="352.50" width="18.75" height="18.75" fill="#2a1c14"/><rect x="157.50" y="371.25" width="18.75" height="18.75" fill="#2a1c14"/><rect x="176.25" y="371.25" width="18.75" height="18.75" fill="#6a3a24"/><rect x="195.00" y="371.25" width="18.75" height="18.75" fill="#f6f2ea"/><rect x="213.75" y="371.25" width="18.75" height="18.75" fill="#f6f2ea"/><rect x="232.50" y="371.25" width="18.75" height="18.75" fill="#f6f2ea"/><rect x="251.25" y="371.25" width="18.75" height="18.75" fill="#f6f2ea"/><rect x="270.00" y="371.25" width="18.75" height="18.75" fill="#f6f2ea"/><rect x="288.75" y="371.25" width="18.75" height="18.75" fill="#f6f2ea"/><rect x="307.50" y="371.25" width="18.75" height="18.75" fill="#f6f2ea"/><rect x="326.25" y="371.25" width="18.75" height="18.75" fill="#f6f2ea"/><rect x="345.00" y="371.25" width="18.75" height="18.75" fill="#6a3a24"/><rect x="363.75" y="371.25" width="18.75" height="18.75" fill="#2a1c14"/><rect x="157.50" y="390.00" width="18.75" height="18.75" fill="#2a1c14"/><rect x="176.25" y="390.00" width="18.75" height="18.75" fill="#f6f2ea"/><rect x="195.00" y="390.00" width="18.75" height="18.75" fill="#f6f2ea"/><rect x="213.75" y="390.00" width="18.75" height="18.75" fill="#f6f2ea"/><rect x="232.50" y="390.00" width="18.75" height="18.75" fill="#f6f2ea"/><rect x="251.25" y="390.00" width="18.75" height="18.75" fill="#f6f2ea"/><rect x="270.00" y="390.00" width="18.75" height="18.75" fill="#f6f2ea"/><rect x="288.75" y="390.00" width="18.75" height="18.75" fill="#f6f2ea"/><rect x="307.50" y="390.00" width="18.75" height="18.75" fill="#f6f2ea"/><rect x="326.25" y="390.00" width="18.75" height="18.75" fill="#f6f2ea"/><rect x="345.00" y="390.00" width="18.75" height="18.75" fill="#f6f2ea"/><rect x="363.75" y="390.00" width="18.75" height="18.75" fill="#2a1c14"/><rect x="157.50" y="408.75" width="18.75" height="18.75" fill="#2a1c14"/><rect x="176.25" y="408.75" width="18.75" height="18.75" fill="#f6f2ea"/><rect x="195.00" y="408.75" width="18.75" height="18.75" fill="#f6f2ea"/><rect x="213.75" y="408.75" width="18.75" height="18.75" fill="#2a1c14"/><rect x="307.50" y="408.75" width="18.75" height="18.75" fill="#2a1c14"/><rect x="326.25" y="408.75" width="18.75" height="18.75" fill="#f6f2ea"/><rect x="345.00" y="408.75" width="18.75" height="18.75" fill="#f6f2ea"/><rect x="363.75" y="408.75" width="18.75" height="18.75" fill="#2a1c14"/><rect x="157.50" y="427.50" width="18.75" height="18.75" fill="#2a1c14"/><rect x="176.25" y="427.50" width="18.75" height="18.75" fill="#2a1c14"/><rect x="195.00" y="427.50" width="18.75" height="18.75" fill="#2a1c14"/><rect x="326.25" y="427.50" width="18.75" height="18.75" fill="#2a1c14"/><rect x="345.00" y="427.50" width="18.75" height="18.75" fill="#2a1c14"/><rect x="363.75" y="427.50" width="18.75" height="18.75" fill="#2a1c14"/>
<text x="470" y="300" font-family="ui-monospace,Menlo,monospace" font-size="150" font-weight="800"
  fill="#f0a24a" stroke="#6a2f0a" stroke-width="6" paint-order="stroke" letter-spacing="10">COBBIES</text>
<text x="474" y="380" font-family="ui-monospace,Menlo,monospace" font-size="40" font-weight="700"
  fill="#356a35" letter-spacing="14">A COZY CREATURE RANCH</text>
</svg>